<svg width="6" height="10" viewBox="0 0 6 10" fill="none" xmlns="http://www.w3.org/2000/svg">
<path fill-rule="evenodd" clip-rule="evenodd" d="M5.48779 4.51221L5 4.04468L1.15854 0.203369C1.02304 0.0678691 0.863836 0 0.680908 0C0.497981 0 0.338749 0.0678691 0.203247 0.203369C0.0677451 0.338869 0 0.494504 0 0.670654C0 0.846804 0.0677451 1.00939 0.203247 1.15845L4.04471 5L0.203247 8.84155C0.0677451 8.99061 0 9.1532 0 9.32935C0 9.5055 0.0677451 9.66113 0.203247 9.79663C0.338749 9.93213 0.497981 10 0.680908 10C0.863836 10 1.02304 9.93213 1.15854 9.79663L5.48779 5.48779C5.62329 5.35229 5.69107 5.1897 5.69107 5C5.69107 4.8103 5.62329 4.64771 5.48779 4.51221Z" fill="#727272"/>
</svg>
