<svg xmlns="http://www.w3.org/2000/svg" xmlns:xlink="http://www.w3.org/1999/xlink" width="1491" zoomAndPan="magnify" viewBox="0 0 1118.25 110.999996" height="148" preserveAspectRatio="xMidYMid meet" version="1.0"><defs><g/><clipPath id="516cf67520"><path d="M 973 0.0390625 L 1021 0.0390625 L 1021 42 L 973 42 Z M 973 0.0390625 " clip-rule="nonzero"/></clipPath><clipPath id="77654e0f57"><path d="M 1017 0.0390625 L 1114 0.0390625 L 1114 107 L 1017 107 Z M 1017 0.0390625 " clip-rule="nonzero"/></clipPath></defs><g fill="#c81e24" fill-opacity="1"><g transform="translate(1.802386, 104.674621)"><g><path d="M 2.3125 -55.765625 C 11.269531 -62.988281 14.878906 -68.335938 22.105469 -73.824219 C 22.105469 -73.824219 27.738281 -76.859375 31.0625 -75.558594 C 34.960938 -74.113281 36.40625 -66.601562 36.40625 -66.601562 C 38.285156 -59.378906 34.671875 -32.363281 20.226562 0.144531 L 72.523438 0.144531 C 59.957031 -35.972656 50.855469 -68.335938 63.566406 -75.558594 C 63.566406 -75.558594 68.769531 -77.582031 72.523438 -73.824219 C 76.136719 -70.214844 83.503906 -60.824219 90.582031 -55.765625 L 74.257812 -100.839844 L 20.226562 -100.839844 Z M 2.3125 -55.765625 "/></g></g></g><g fill="#c81e24" fill-opacity="1"><g transform="translate(94.829388, 104.674621)"><g><path d="M 92.316406 0 C 92.027344 -4.910156 83.359375 -12.570312 76.136719 -25.136719 C 70.214844 -35.539062 65.734375 -51.433594 65.300781 -54.03125 C 65.300781 -54.03125 79.894531 -65.15625 81.480469 -77.4375 C 82.925781 -87.550781 77.871094 -98.964844 70.648438 -100.839844 L 2.3125 -100.839844 C 2.3125 -95.785156 20.226562 -88.273438 16.613281 -44.929688 C 16.613281 -44.929688 11.269531 -8.957031 2.3125 0 L 43.628906 0 C 34.671875 -10.691406 29.328125 -41.320312 36.40625 -44.929688 C 36.40625 -44.929688 41.898438 -48.542969 45.507812 -43.195312 C 45.507812 -43.195312 51.578125 -38.140625 54.464844 -30.628906 C 61.6875 -12.570312 56.34375 -3.035156 56.34375 0 Z M 56.34375 -70.214844 C 55.621094 -62.699219 40.019531 -55.765625 36.40625 -55.765625 C 36.40625 -55.765625 38.285156 -63.132812 38.285156 -70.214844 C 38.285156 -76.570312 36.40625 -86.394531 36.40625 -86.394531 C 36.40625 -86.394531 58.078125 -88.273438 56.34375 -70.214844 Z M 56.34375 -70.214844 "/></g></g></g><g fill="#c81e24" fill-opacity="1"><g transform="translate(189.589814, 104.674621)"><g><path d="M 74.257812 -68.335938 C 68.769531 -84.660156 71.367188 -98.820312 70.648438 -100.839844 L 29.328125 -100.839844 C 29.328125 -98.53125 32.941406 -91.882812 25.714844 -68.335938 C 18.78125 -45.652344 2.3125 -3.179688 2.3125 0.144531 L 36.40625 0.144531 C 36.117188 -5.632812 29.328125 -30.628906 43.628906 -34.09375 C 46.808594 -34.816406 54.175781 -36.117188 58.078125 -30.628906 C 64.433594 -21.671875 68.914062 -1.589844 68.914062 0.144531 L 103.152344 0.144531 C 103.152344 0.144531 84.371094 -38.71875 74.257812 -68.335938 Z M 61.6875 -46.808594 L 38.285156 -46.808594 C 38.285156 -46.808594 43.339844 -55.332031 45.507812 -61.257812 C 47.53125 -66.601562 49.121094 -75.558594 49.121094 -75.558594 C 56.34375 -48.542969 65.300781 -46.808594 61.6875 -46.808594 Z M 61.6875 -46.808594 "/></g></g></g><g fill="#c81e24" fill-opacity="1"><g transform="translate(295.184134, 104.674621)"><g><path d="M 52.730469 -101.417969 L 2.3125 -101.417969 C 2.601562 -90.003906 18.492188 -76.136719 14.878906 -43.773438 C 11.992188 -17.769531 4.046875 -0.433594 4.046875 -0.433594 C 15.601562 -0.433594 38.574219 0.578125 50.855469 -0.433594 C 70.648438 -2.3125 87.261719 -25.859375 86.972656 -52.730469 C 86.683594 -74.835938 68.914062 -95.929688 52.730469 -101.417969 Z M 40.019531 -28.75 C 40.019531 -28.75 40.019531 -21.527344 34.671875 -44.929688 C 31.207031 -59.957031 34.671875 -82.78125 34.671875 -82.78125 C 34.671875 -82.78125 60.96875 -74.835938 61.6875 -55.765625 C 62.410156 -35.25 45.507812 -30.628906 40.019531 -28.75 Z M 40.019531 -28.75 "/></g></g></g><g fill="#c81e24" fill-opacity="1"><g transform="translate(384.59981, 104.674621)"><g><path d="M 72.523438 0 L 79.75 -35.972656 C 70.933594 -35.539062 50.855469 -21.527344 38.285156 -19.792969 C 26.4375 -18.058594 28.75 -39.730469 31.0625 -44.929688 C 33.371094 -49.988281 50.855469 -43.195312 52.730469 -43.195312 L 52.730469 -62.988281 C 24.703125 -55.910156 22.828125 -69.636719 34.671875 -81.046875 C 41.175781 -87.261719 73.101562 -68.625 79.75 -68.335938 L 72.523438 -100.839844 L 2.3125 -100.839844 C 2.3125 -98.242188 13.003906 -71.511719 13.003906 -46.808594 C 13.003906 -23.691406 2.3125 -2.601562 2.3125 0 Z M 72.523438 0 "/></g></g></g><g fill="#c81e24" fill-opacity="1"><g transform="translate(466.792918, 104.674621)"><g><path d="M 92.316406 0 C 92.027344 -4.910156 83.359375 -12.570312 76.136719 -25.136719 C 70.214844 -35.539062 65.734375 -51.433594 65.300781 -54.03125 C 65.300781 -54.03125 79.894531 -65.15625 81.480469 -77.4375 C 82.925781 -87.550781 77.871094 -98.964844 70.648438 -100.839844 L 2.3125 -100.839844 C 2.3125 -95.785156 20.226562 -88.273438 16.613281 -44.929688 C 16.613281 -44.929688 11.269531 -8.957031 2.3125 0 L 43.628906 0 C 34.671875 -10.691406 29.328125 -41.320312 36.40625 -44.929688 C 36.40625 -44.929688 41.898438 -48.542969 45.507812 -43.195312 C 45.507812 -43.195312 51.578125 -38.140625 54.464844 -30.628906 C 61.6875 -12.570312 56.34375 -3.035156 56.34375 0 Z M 56.34375 -70.214844 C 55.621094 -62.699219 40.019531 -55.765625 36.40625 -55.765625 C 36.40625 -55.765625 38.285156 -63.132812 38.285156 -70.214844 C 38.285156 -76.570312 36.40625 -86.394531 36.40625 -86.394531 C 36.40625 -86.394531 58.078125 -88.273438 56.34375 -70.214844 Z M 56.34375 -70.214844 "/></g></g></g><g fill="#c81e24" fill-opacity="1"><g transform="translate(561.553344, 104.674621)"><g/></g></g><g fill="#c81e24" fill-opacity="1"><g transform="translate(588.854745, 104.674621)"><g><path d="M 35.25 -12.136719 C 28.027344 -21.671875 28.75 -39.730469 31.0625 -44.929688 C 33.371094 -49.988281 50.855469 -43.195312 52.730469 -43.195312 L 52.730469 -62.988281 C 24.703125 -55.910156 22.828125 -69.636719 34.671875 -81.046875 C 41.175781 -87.261719 73.101562 -68.625 79.75 -68.335938 L 72.523438 -100.839844 L 2.3125 -100.839844 C 2.3125 -98.242188 13.003906 -71.511719 13.003906 -46.808594 C 13.003906 -23.691406 2.3125 -2.601562 2.3125 0 L 54.175781 0 C 54.175781 0 42.042969 -3.324219 35.25 -12.136719 Z M 35.25 -12.136719 "/></g></g></g><g fill="#c81e24" fill-opacity="1"><g transform="translate(670.90342, 104.674621)"><g><path d="M 74.257812 -68.335938 C 68.769531 -84.660156 71.367188 -98.820312 70.648438 -100.839844 L 29.328125 -100.839844 C 29.328125 -98.53125 32.941406 -91.882812 25.714844 -68.335938 C 18.78125 -45.652344 2.3125 -3.179688 2.3125 0.144531 L 36.40625 0.144531 C 36.117188 -5.632812 29.328125 -30.628906 43.628906 -34.09375 C 46.808594 -34.816406 54.175781 -36.117188 58.078125 -30.628906 C 64.433594 -21.671875 68.914062 -1.589844 68.914062 0.144531 L 103.152344 0.144531 C 103.152344 0.144531 84.371094 -38.71875 74.257812 -68.335938 Z M 61.6875 -46.808594 L 38.285156 -46.808594 C 38.285156 -46.808594 43.339844 -55.332031 45.507812 -61.257812 C 47.53125 -66.601562 49.121094 -75.558594 49.121094 -75.558594 C 56.34375 -48.542969 65.300781 -46.808594 61.6875 -46.808594 Z M 61.6875 -46.808594 "/></g></g></g><g fill="#c81e24" fill-opacity="1"><g transform="translate(776.49774, 104.674621)"><g><path d="M 60.824219 -100.117188 C 65.300781 -88.417969 72.378906 -57.789062 55.910156 -35.25 C 49.265625 -26.871094 9.679688 -27.738281 34.816406 -100.117188 C 22.972656 -100.117188 6.644531 -100.117188 -5.199219 -100.117188 C -5.199219 -100.117188 9.679688 -87.261719 12.425781 -35.828125 C 13.4375 -16.46875 29.328125 -6.210938 34.238281 -2.746094 C 42.761719 3.179688 54.753906 3.613281 63.132812 -1.011719 C 79.894531 -10.257812 87.40625 -21.09375 86.539062 -45.941406 C 84.660156 -89.285156 104.019531 -98.675781 104.019531 -100.117188 Z M 60.824219 -100.117188 "/></g></g></g><g fill="#c81e24" fill-opacity="1"><g transform="translate(882.958732, 104.674621)"><g><path d="M 31.496094 -54.753906 C 31.496094 -38.429688 2.3125 0 2.3125 0 L 33.515625 0 C 33.515625 0 36.40625 -42.332031 49.265625 -42.332031 C 62.121094 -42.332031 62.84375 0 62.84375 0 L 96.21875 0 C 96.21875 0 69.058594 -41.320312 69.058594 -58.222656 C 69.058594 -74.980469 96.21875 -103.585938 96.21875 -103.585938 L 61.832031 -103.585938 C 61.832031 -103.585938 63.855469 -74.835938 49.265625 -74.835938 C 34.527344 -74.835938 40.742188 -103.585938 40.742188 -103.585938 L 5.199219 -103.585938 C 5.199219 -103.585938 31.496094 -71.222656 31.496094 -54.753906 Z M 31.496094 -54.753906 "/></g></g></g><g clip-path="url(#516cf67520)"><g fill="#c81e24" fill-opacity="1"><g transform="translate(981.474916, 104.674621)"><g><path d="M 11.558594 -62.988281 C 11.558594 -62.988281 39.296875 -88.5625 29.617188 -100.839844 C 22.394531 -109.796875 11.558594 -108.929688 7.945312 -106.1875 C -8.234375 -93.617188 15.167969 -77.292969 15.167969 -77.292969 Z M 11.558594 -62.988281 "/></g></g></g></g><g clip-path="url(#77654e0f57)"><g fill="#c81e24" fill-opacity="1"><g transform="translate(1015.565548, 104.674621)"><g><path d="M 77.871094 -98.964844 C 75.558594 -98.964844 44.785156 -107.632812 27.449219 -97.230469 C 19.214844 -92.171875 12.136719 -81.625 12.570312 -71.800781 C 13.003906 -59.378906 17.046875 -53.597656 20.226562 -50.277344 C 31.0625 -39.585938 32.796875 -44.929688 41.898438 -34.09375 C 47.675781 -27.015625 38.285156 -19.648438 32.796875 -19.648438 C 20.949219 -19.648438 18.925781 -41.175781 16.613281 -41.320312 L 2.3125 0.144531 C 7.65625 2.3125 14.878906 -1.734375 18.492188 -3.46875 C 31.0625 -1.734375 27.449219 0.144531 49.121094 0.144531 C 68.914062 0.144531 81.480469 -4.765625 81.480469 -28.75 C 81.480469 -46.664062 67.035156 -57.5 58.078125 -59.378906 C 45.507812 -61.832031 41.898438 -71.945312 45.507812 -79.171875 C 47.675781 -83.359375 53.019531 -84.515625 59.957031 -84.515625 C 68.914062 -84.515625 71.367188 -80.183594 72.523438 -79.171875 C 74.257812 -77.292969 78.449219 -69.925781 77.871094 -62.988281 L 97.664062 -100.695312 C 94.195312 -102.140625 81.480469 -95.351562 77.871094 -98.964844 Z M 77.871094 -98.964844 "/></g></g></g></g></svg>